<svg width="38" height="54" viewBox="0 0 38 54" fill="none" xmlns="http://www.w3.org/2000/svg">
<path d="M8.18844 53.4909C10.739 45.5684 13.2896 37.6412 15.8734 29.6285H0C0.137741 29.315 0.23274 29.087 0.332483 28.8638C4.6072 19.4547 8.88665 10.0456 13.1519 0.62696C13.3656 0.151991 13.6173 0 14.1351 0C21.7298 0.0189987 29.3245 0.0142503 36.9193 0.0142503C37.1187 0.0142503 37.323 0.0142503 37.6839 0.0142503C32.2646 6.34083 26.9497 12.5392 21.5541 18.8372H37.7124C27.8521 30.493 18.0915 42.0299 8.33568 53.5622C8.28819 53.5384 8.24069 53.5194 8.18844 53.4957V53.4909Z" fill="url(#paint0_linear_19_320)"/>
<defs>
<linearGradient id="paint0_linear_19_320" x1="18.8562" y1="0" x2="18.8562" y2="53.5622" gradientUnits="userSpaceOnUse">
<stop stop-color="white"/>
<stop offset="1" stop-color="white" stop-opacity="0"/>
</linearGradient>
</defs>
</svg>
