<svg width="536" height="72" viewBox="0 0 536 72" fill="none" xmlns="http://www.w3.org/2000/svg">
<path d="M320.427 67.5776C323.649 57.5688 326.871 47.554 330.135 37.4311H310.082C310.256 37.0351 310.376 36.7471 310.502 36.465C315.902 24.5781 321.309 12.6911 326.697 0.792066C326.967 0.192016 327.285 0 327.939 0C337.534 0.024002 347.129 0.0180015 356.724 0.0180015C356.976 0.0180015 357.234 0.0180015 357.69 0.0180015C350.843 8.01067 344.129 15.8413 337.312 23.798H357.726C345.269 38.5232 332.938 53.0984 320.613 67.6676C320.553 67.6376 320.493 67.6136 320.427 67.5836V67.5776Z" fill="#303337"/>
<path d="M361.548 64.5354L378.158 1.86014H391.935L378.416 52.8884H407.398L404.314 64.5354H361.554H361.548Z" fill="#303337"/>
<path d="M449.768 65.4234C446.449 65.4234 443.707 64.8174 441.541 63.5993C439.375 62.3872 437.857 60.7251 436.992 58.6189C436.128 56.5127 436.056 54.1005 436.776 51.3763C437.623 48.178 439.123 45.6578 441.265 43.8216C443.407 41.9855 446.443 40.6534 450.368 39.8193C454.292 38.9912 459.332 38.5772 465.501 38.5772H470.211L468.375 45.5138H463.755C461.505 45.5138 459.554 45.6038 457.904 45.7778C456.254 45.9578 454.868 46.2638 453.746 46.7139C452.618 47.1579 451.748 47.722 451.118 48.4C450.494 49.0841 450.056 49.9002 449.804 50.8422C449.378 52.4444 449.606 53.7765 450.476 54.8446C451.346 55.9127 452.852 56.4467 454.988 56.4467C456.704 56.4467 458.348 56.0627 459.914 55.2886C461.481 54.5205 462.831 53.4524 463.965 52.0903C465.093 50.7282 465.915 49.0961 466.419 47.1999L469.107 37.0651C469.797 34.4609 469.695 32.6067 468.801 31.5086C467.907 30.4105 466.005 29.8645 463.101 29.8645C460.79 29.8645 458.222 30.2185 455.396 30.9326C452.57 31.6466 449.678 32.7687 446.725 34.3109L445.435 25.4241C447.259 24.356 449.359 23.4079 451.748 22.5799C454.13 21.7518 456.608 21.1158 459.188 20.6657C461.763 20.2217 464.121 19.9997 466.257 19.9997C470.817 19.9997 474.424 20.6657 477.064 21.9978C479.704 23.3299 481.378 25.3881 482.092 28.1783C482.806 30.9626 482.596 34.4909 481.468 38.7572L474.64 64.5354H462.105L464.415 55.8226H465.039C464.163 57.7788 462.963 59.4649 461.427 60.8931C459.896 62.3152 458.144 63.4253 456.188 64.2233C454.226 65.0214 452.09 65.4234 449.78 65.4234H449.768Z" fill="#303337"/>
<path d="M505.506 65.4235C500.826 65.4235 497.01 64.5054 494.057 62.6692C491.105 60.8331 489.119 58.2108 488.099 54.8026C487.073 51.3943 487.187 47.3499 488.423 42.6696C489.647 38.0492 491.675 34.0348 494.501 30.6265C497.328 27.2183 500.706 24.596 504.63 22.7599C508.555 20.9237 512.857 20.0057 517.537 20.0057C522.218 20.0057 526.052 20.9237 529.028 22.7599C532.01 24.596 534.009 27.2183 535.035 30.6265C536.055 34.0348 535.959 38.0492 534.735 42.6696C533.511 47.2899 531.458 51.3943 528.632 54.8026C525.8 58.2108 522.41 60.8331 518.455 62.6692C514.501 64.5054 510.181 65.4235 505.5 65.4235H505.506ZM508.146 55.4686C511.051 55.4686 513.667 54.4305 515.995 52.3544C518.323 50.2782 520.069 47.0499 521.228 42.6636C522.374 38.3372 522.332 35.1509 521.096 33.1048C519.859 31.0586 517.789 30.0385 514.885 30.0385C511.981 30.0385 509.461 31.0586 507.138 33.1048C504.816 35.1509 503.088 38.3372 501.942 42.6636C500.778 47.0499 500.814 50.2782 502.044 52.3544C503.274 54.4305 505.308 55.4686 508.152 55.4686H508.146Z" fill="#303337"/>
<path d="M188.728 32.6487L192.256 27.2903L192.946 32.6487L197.05 34.4549L200.627 20.9717H187.204L183.627 34.4669L188.728 32.6487Z" fill="#303337"/>
<path d="M191.83 36.8671L188.302 42.2315L187.612 36.8671L183.471 35.0489L175.659 64.5354H189.082L196.894 35.0669L191.83 36.8671Z" fill="#303337"/>
<path d="M0 64.5354L16.6034 1.86014H28.1604L39.7473 43.0176H36.9031L70.3019 1.86014H81.5888L64.9854 64.5354H52.4504L63.4733 22.9339H65.4295L38.7692 55.1146H31.0346L21.4518 22.8439H23.498L12.445 64.5354H0Z" fill="#303337"/>
<path d="M91.0636 65.4234C87.7453 65.4234 85.0031 64.8174 82.8369 63.5993C80.6707 62.3872 79.1526 60.7251 78.2885 58.6189C77.4244 56.5127 77.3524 54.1005 78.0725 51.3763C78.9186 48.178 80.4187 45.6578 82.5609 43.8216C84.703 41.9855 87.7393 40.6534 91.6636 39.8193C95.5879 38.9912 100.628 38.5772 106.797 38.5772H111.507L109.671 45.5138H105.051C102.801 45.5138 100.85 45.6038 99.2003 45.7778C97.5501 45.9578 96.164 46.2638 95.0419 46.7139C93.9138 47.1579 93.0437 47.722 92.4137 48.4C91.7896 49.0841 91.3516 49.9002 91.0996 50.8422C90.6735 52.4444 90.9016 53.7765 91.7716 54.8446C92.6477 55.9127 94.1478 56.4467 96.284 56.4467C98.0002 56.4467 99.6443 56.0627 101.21 55.2886C102.777 54.5205 104.127 53.4524 105.261 52.0903C106.389 50.7282 107.211 49.0961 107.715 47.1999L110.403 37.0651C111.093 34.4609 110.991 32.6067 110.097 31.5086C109.203 30.4105 107.301 29.8645 104.397 29.8645C102.086 29.8645 99.5183 30.2185 96.692 30.9326C93.8658 31.6466 90.9736 32.7687 88.0213 34.3109L86.7312 25.4241C88.5554 24.356 90.6555 23.4079 93.0437 22.5799C95.4259 21.7518 97.9041 21.1158 100.484 20.6657C103.059 20.2217 105.417 19.9997 107.553 19.9997C112.113 19.9997 115.72 20.6657 118.36 21.9978C121 23.3299 122.674 25.3881 123.388 28.1783C124.102 30.9626 123.892 34.4909 122.764 38.7572L115.936 64.5354H103.401L105.711 55.8226H106.335C105.459 57.7788 104.259 59.4649 102.723 60.8931C101.192 62.3152 99.4403 63.4253 97.4841 64.2233C95.522 65.0214 93.3858 65.4234 91.0756 65.4234H91.0636Z" fill="#303337"/>
<path d="M119.746 64.5354L147.396 39.0213L145.77 45.1538L132.443 20.9717H148.086L155.773 35.907H151.063L166.664 20.9717H182.223L156.103 45.0638L157.681 39.1053L171.926 64.5294H156.193L147.744 48.442H152.365L135.299 64.5294H119.74L119.746 64.5354Z" fill="#303337"/>
<path d="M199.487 64.5354L211.026 20.9777H224.185L222.019 29.1564H221.04C223.129 26.1922 225.745 23.93 228.889 22.3579C232.033 20.7857 235.292 19.9997 238.67 19.9997C242.228 19.9997 244.94 20.6657 246.807 21.9978C248.679 23.3299 249.813 25.3641 250.215 28.0883C250.617 30.8126 250.269 34.2508 249.171 38.4032L242.246 64.5414H228.823L235.61 38.9372C236.144 36.9211 236.336 35.2949 236.192 34.0468C236.048 32.8047 235.562 31.8866 234.746 31.2926C233.924 30.6985 232.771 30.4045 231.289 30.4045C229.393 30.4045 227.641 30.8066 226.039 31.6046C224.431 32.4027 223.051 33.5308 221.899 34.9829C220.74 36.435 219.9 38.1692 219.366 40.1853L212.91 64.5414H199.487V64.5354Z" fill="#303337"/>
<path d="M274.811 65.4234C269.657 65.4234 265.468 64.5054 262.252 62.6692C259.036 60.8331 256.881 58.2108 255.801 54.8026C254.715 51.3943 254.799 47.3499 256.041 42.6696C257.283 37.9892 259.24 34.2388 262.054 30.8906C264.868 27.5423 268.222 24.8901 272.117 22.9339C276.011 20.9777 280.097 19.9997 284.364 19.9997C288.63 19.9997 292.152 20.9057 294.757 22.7119C297.361 24.518 299.059 27.0982 299.863 30.4465C300.667 33.7948 300.469 37.7251 299.275 42.2255L298.381 45.6038H266.38L268.216 38.6672H290.532L288.78 39.9093C289.74 36.297 289.68 33.5368 288.612 31.6406C287.544 29.7445 285.558 28.7964 282.654 28.7964C280.463 28.7964 278.459 29.3004 276.653 30.3085C274.847 31.3166 273.269 32.7867 271.931 34.7069C270.593 36.633 269.567 38.9312 268.858 41.5955L268.672 42.3095C267.874 45.3338 267.67 47.824 268.072 49.7801C268.474 51.7363 269.501 53.1704 271.151 54.0945C272.801 55.0126 274.991 55.4746 277.721 55.4746C280.091 55.4746 282.588 55.1206 285.204 54.4065C287.82 53.6925 290.304 52.6004 292.656 51.1183L293.833 60.095C291.216 61.6971 288.18 62.9812 284.718 63.9593C281.255 64.9374 277.955 65.4234 274.817 65.4234H274.811Z" fill="#303337"/>
<path d="M424.403 32.6067L427.932 27.2483L428.616 32.6067L432.726 34.4129L436.296 20.9297H422.873L419.297 34.4249L424.403 32.6067Z" fill="#303337"/>
<path d="M427.5 36.8251L423.971 42.1835L423.281 36.8251L419.147 35.0069L411.334 64.4874H424.757L432.564 35.0189L427.5 36.8251Z" fill="#303337"/>
<path d="M343.913 57.0647L344.597 62.4232L349.397 64.5354L343.481 66.6415L339.952 72L339.268 66.6415L334.468 64.5354L340.385 62.4232L343.913 57.0647Z" fill="#303337"/>
</svg>
