<svg width="239" height="32" viewBox="0 0 239 32" fill="none" xmlns="http://www.w3.org/2000/svg">
<path d="M142.412 30.0345C143.844 25.5861 145.276 21.1351 146.727 16.6361H137.814C137.892 16.46 137.945 16.332 138.001 16.2067C140.401 10.9236 142.804 5.64047 145.199 0.352029C145.319 0.0853405 145.46 0 145.751 0C150.015 0.0106676 154.28 0.00800067 158.544 0.00800067C158.656 0.00800067 158.771 0.00800067 158.973 0.00800067C155.93 3.5603 152.946 7.04059 149.917 10.5769H158.989C153.453 17.1214 147.972 23.5993 142.495 30.0745C142.468 30.0612 142.441 30.0505 142.412 30.0372V30.0345Z" fill="#EEEEEE"/>
<path d="M160.688 28.6824L168.07 0.826752H174.193L168.185 23.506H181.066L179.695 28.6824H160.691H160.688Z" fill="#EEEEEE"/>
<path d="M199.897 29.0771C198.422 29.0771 197.203 28.8078 196.24 28.2664C195.278 27.7277 194.603 26.9889 194.219 26.0529C193.835 25.1168 193.803 24.0447 194.123 22.8339C194.499 21.4125 195.166 20.2924 196.118 19.4763C197.07 18.6602 198.419 18.0682 200.163 17.6975C201.908 17.3295 204.148 17.1455 206.889 17.1455H208.983L208.167 20.2284H206.113C205.113 20.2284 204.246 20.2684 203.513 20.3457C202.78 20.4257 202.164 20.5617 201.665 20.7618C201.163 20.9591 200.777 21.2098 200.497 21.5112C200.219 21.8152 200.025 22.1779 199.913 22.5966C199.723 23.3086 199.825 23.9007 200.211 24.3754C200.598 24.8501 201.267 25.0875 202.217 25.0875C202.98 25.0875 203.71 24.9168 204.406 24.5727C205.102 24.2314 205.702 23.7567 206.207 23.1513C206.708 22.5459 207.073 21.8205 207.297 20.9778L208.492 16.4734C208.799 15.316 208.753 14.4919 208.356 14.0039C207.959 13.5158 207.113 13.2731 205.823 13.2731C204.796 13.2731 203.654 13.4305 202.398 13.7478C201.142 14.0652 199.857 14.5639 198.545 15.2493L197.971 11.2996C198.782 10.8249 199.715 10.4036 200.777 10.0355C201.835 9.66749 202.937 9.38481 204.084 9.18479C205.228 8.98744 206.276 8.88876 207.225 8.88876C209.252 8.88876 210.855 9.18479 212.028 9.77684C213.202 10.3689 213.946 11.2836 214.263 12.5237C214.581 13.7612 214.487 15.3293 213.986 17.2255L210.951 28.6824H205.38L206.407 24.8101H206.684C206.295 25.6795 205.761 26.4289 205.078 27.0636C204.398 27.6957 203.62 28.189 202.75 28.5437C201.878 28.8984 200.929 29.0771 199.902 29.0771H199.897Z" fill="#EEEEEE"/>
<path d="M224.669 29.0771C222.589 29.0771 220.893 28.6691 219.581 27.853C218.269 27.0369 217.386 25.8715 216.933 24.3567C216.477 22.8419 216.527 21.0444 217.077 18.9643C217.621 16.9108 218.522 15.1266 219.778 13.6118C221.034 12.097 222.536 10.9316 224.28 10.1155C226.024 9.29945 227.936 8.89142 230.017 8.89142C232.097 8.89142 233.801 9.29945 235.124 10.1155C236.449 10.9316 237.337 12.097 237.793 13.6118C238.247 15.1266 238.204 16.9108 237.66 18.9643C237.116 21.0178 236.204 22.8419 234.948 24.3567C233.689 25.8715 232.182 27.0369 230.425 27.853C228.667 28.6691 226.747 29.0771 224.667 29.0771H224.669ZM225.843 24.6527C227.134 24.6527 228.296 24.1914 229.331 23.2686C230.366 22.3459 231.142 20.9111 231.657 18.9616C232.166 17.0388 232.147 15.6226 231.598 14.7132C231.049 13.8038 230.129 13.3505 228.838 13.3505C227.547 13.3505 226.427 13.8038 225.395 14.7132C224.363 15.6226 223.595 17.0388 223.085 18.9616C222.568 20.9111 222.584 22.3459 223.131 23.2686C223.677 24.1914 224.581 24.6527 225.846 24.6527H225.843Z" fill="#EEEEEE"/>
<path d="M83.879 14.5106L85.4471 12.129L85.7538 14.5106L87.578 15.3133L89.1674 9.3208H83.2016L81.6121 15.3186L83.879 14.5106Z" fill="#EEEEEE"/>
<path d="M85.2578 16.3854L83.6896 18.7696L83.3829 16.3854L81.5428 15.5773L78.0705 28.6824H84.0363L87.5086 15.5853L85.2578 16.3854Z" fill="#EEEEEE"/>
<path d="M0 28.6824L7.37928 0.826752H12.5157L17.6655 19.1189H16.4014L31.2453 0.826752H36.2617L28.8824 28.6824H23.3113L28.2104 10.1929H29.0798L17.2308 24.4954H13.7932L9.53413 10.1529H10.4435L5.53113 28.6824H0Z" fill="#EEEEEE"/>
<path d="M40.4727 29.0771C38.9979 29.0771 37.7792 28.8078 36.8164 28.2664C35.8537 27.7277 35.179 26.9889 34.7949 26.0529C34.4109 25.1168 34.3789 24.0447 34.6989 22.8339C35.0749 21.4125 35.7417 20.2924 36.6937 19.4763C37.6458 18.6602 38.9953 18.0682 40.7394 17.6975C42.4836 17.3295 44.7237 17.1455 47.4653 17.1455H49.5588L48.7428 20.2284H46.6892C45.6892 20.2284 44.8224 20.2684 44.089 20.3457C43.3556 20.4257 42.7396 20.5617 42.2409 20.7618C41.7395 20.9591 41.3528 21.2098 41.0728 21.5112C40.7954 21.8152 40.6007 22.1779 40.4887 22.5966C40.2994 23.3086 40.4007 23.9007 40.7874 24.3754C41.1768 24.8501 41.8435 25.0875 42.7929 25.0875C43.5557 25.0875 44.2864 24.9168 44.9824 24.5727C45.6785 24.2314 46.2785 23.7567 46.7826 23.1513C47.284 22.5459 47.6493 21.8205 47.8733 20.9778L49.0681 16.4734C49.3748 15.316 49.3295 14.4919 48.9321 14.0039C48.5347 13.5158 47.6893 13.2731 46.3986 13.2731C45.3718 13.2731 44.2304 13.4305 42.9743 13.7478C41.7182 14.0652 40.4327 14.5639 39.1206 15.2493L38.5472 11.2996C39.358 10.8249 40.2914 10.4036 41.3528 10.0355C42.4116 9.66749 43.513 9.38481 44.6597 9.18479C45.8038 8.98744 46.8519 8.88876 47.8013 8.88876C49.8282 8.88876 51.431 9.18479 52.6044 9.77684C53.7778 10.3689 54.5219 11.2836 54.8393 12.5237C55.1566 13.7612 55.0633 15.3293 54.5619 17.2255L51.527 28.6824H45.9559L46.9826 24.8101H47.26C46.8706 25.6795 46.3372 26.4289 45.6545 27.0636C44.9744 27.6957 44.1957 28.189 43.3263 28.5437C42.4542 28.8984 41.5048 29.0771 40.4781 29.0771H40.4727Z" fill="#EEEEEE"/>
<path d="M53.2204 28.6824L65.5095 17.3428L64.7867 20.0683L58.8636 9.32077H65.8162L69.2324 15.9587H67.1389L74.0729 9.32077H80.9881L69.3791 20.0283L70.0805 17.3801L76.4117 28.6797H69.4191L65.6641 21.5298H67.7177L60.133 28.6797H53.2178L53.2204 28.6824Z" fill="#EEEEEE"/>
<path d="M88.6608 28.6824L93.7892 9.32347H99.6377L98.6749 12.9584H98.2402C99.1683 11.641 100.331 10.6356 101.729 9.93685C103.126 9.23813 104.574 8.88876 106.076 8.88876C107.657 8.88876 108.862 9.18479 109.692 9.77684C110.524 10.3689 111.028 11.273 111.207 12.4837C111.385 13.6945 111.231 15.2226 110.743 17.0681L107.665 28.6851H101.699L104.715 17.3055C104.953 16.4094 105.038 15.6867 104.974 15.132C104.91 14.5799 104.694 14.1719 104.331 13.9078C103.966 13.6438 103.454 13.5132 102.795 13.5132C101.953 13.5132 101.174 13.6918 100.462 14.0465C99.747 14.4012 99.1336 14.9026 98.6216 15.548C98.1069 16.1934 97.7335 16.9641 97.4962 17.8602L94.6266 28.6851H88.6608V28.6824Z" fill="#EEEEEE"/>
<path d="M122.138 29.0771C119.847 29.0771 117.986 28.6691 116.556 27.853C115.127 27.0369 114.17 25.8715 113.689 24.3567C113.207 22.8419 113.244 21.0444 113.796 18.9643C114.348 16.8841 115.218 15.2173 116.468 13.7292C117.719 12.241 119.21 11.0623 120.941 10.1929C122.672 9.32347 124.488 8.88876 126.384 8.88876C128.28 8.88876 129.845 9.29146 131.003 10.0942C132.16 10.8969 132.915 12.0437 133.272 13.5318C133.63 15.0199 133.542 16.7668 133.011 18.7669L132.614 20.2684H118.391L119.207 17.1855H129.125L128.347 17.7375C128.773 16.132 128.747 14.9053 128.272 14.0625C127.797 13.2198 126.915 12.7984 125.624 12.7984C124.65 12.7984 123.76 13.0224 122.957 13.4705C122.154 13.9185 121.453 14.5719 120.858 15.4253C120.263 16.2814 119.807 17.3028 119.493 18.4869L119.41 18.8043C119.055 20.1484 118.965 21.2551 119.143 22.1245C119.322 22.9939 119.778 23.6313 120.511 24.042C121.245 24.4501 122.218 24.6554 123.432 24.6554C124.485 24.6554 125.594 24.4981 126.757 24.1807C127.92 23.8633 129.024 23.378 130.07 22.7193L130.592 26.7089C129.429 27.421 128.08 27.9917 126.541 28.4264C125.002 28.8611 123.536 29.0771 122.141 29.0771H122.138Z" fill="#EEEEEE"/>
<path d="M188.624 14.4919L190.192 12.1104L190.496 14.4919L192.323 15.2946L193.91 9.30212H187.944L186.354 15.3L188.624 14.4919Z" fill="#EEEEEE"/>
<path d="M190 16.3667L188.432 18.7483L188.125 16.3667L186.288 15.5587L182.815 28.6611H188.781L192.251 15.564L190 16.3667Z" fill="#EEEEEE"/>
<path d="M152.85 25.3621L153.154 27.7437L155.288 28.6824L152.658 29.6185L151.09 32L150.786 29.6185L148.652 28.6824L151.282 27.7437L152.85 25.3621Z" fill="#EEEEEE"/>
</svg>
