<svg xmlns="http://www.w3.org/2000/svg" xmlns:xlink="http://www.w3.org/1999/xlink" preserveAspectRatio="xMidYMid meet" width="1394" height="356" viewBox="0 0 1394 356" style="width:100%;height:100%"><defs><animateMotion repeatCount="indefinite" dur="15.015015s" begin="0s" xlink:href="#_R_G_L_0_G" fill="freeze" keyTimes="0;0.2465667;0.5089955;0.7473777;1" path="M677 51.38 C541,63.38 -2,128 10,228 C22.48,332.02 584.75,318.5 741.75,302 C889.6,286.46 1404.59,224.84 1382,126 C1358,21 813.53,39.33 677,51.38 " keyPoints="0;0.25;0.51;0.75;1" keySplines="0.167 0.167 0.562 0.562;0.31 0.31 0.656 0.656;0.343 0.343 0.688 0.688;0.437 0.437 0.833 0.833" calcMode="spline"/><animateTransform repeatCount="indefinite" dur="15.015015s" begin="0s" xlink:href="#_R_G_L_0_G" fill="freeze" attributeName="transform" from="-19" to="-19" type="rotate" additive="sum" keyTimes="0;1" values="-19;-19" keySplines="0 0 1 1" calcMode="spline"/><animateTransform repeatCount="indefinite" dur="15.015015s" begin="0s" xlink:href="#_R_G_L_0_G" fill="freeze" attributeName="transform" from="0.7000000000000001 0.7000000000000001" to="0.7000000000000001 0.7000000000000001" type="scale" additive="sum" keyTimes="0;1" values="0.7000000000000001 0.7000000000000001;0.7000000000000001 0.7000000000000001" keySplines="0 0 1 1" calcMode="spline"/><animateTransform repeatCount="indefinite" dur="15.015015s" begin="0s" xlink:href="#_R_G_L_0_G" fill="freeze" attributeName="transform" from="-12.845 -12.848" to="-12.845 -12.848" type="translate" additive="sum" keyTimes="0;1" values="-12.845 -12.848;-12.845 -12.848" keySplines="0 0 1 1" calcMode="spline"/><animate attributeType="XML" attributeName="opacity" dur="15s" from="0" to="1" xlink:href="#time_group"/></defs><g id="_R_G"><g id="_R_G_L_1_G" opacity="0.2" transform=" translate(696.788, 177.847) translate(-688.352, -137.774)"><path id="_R_G_L_1_G_D_0_P_0" stroke="#eeeeee" stroke-linecap="round" stroke-linejoin="round" fill="none" stroke-width="1.765" stroke-opacity="1" d=" M678.97 10.68 C1058.62,-17.35 1370.58,16.83 1375.76,87.02 C1380.94,157.22 1077.38,236.84 697.74,264.87 C318.09,292.9 6.13,258.72 0.95,188.53 C-4.23,118.33 299.33,38.71 678.97,10.68z "/></g><g id="_R_G_L_0_G" opacity="0.6"><path id="_R_G_L_0_G_D_0_P_0" fill="#eeeeee" fill-opacity="1" fill-rule="nonzero" d=" M6.47 0.25 C6.47,0.25 14.6,7.49 14.6,7.49 C14.6,7.49 25.44,6.48 25.44,6.48 C25.44,6.48 18.2,14.6 18.2,14.6 C18.2,14.6 19.22,25.45 19.22,25.45 C19.22,25.45 11.09,18.2 11.09,18.2 C11.09,18.2 0.25,19.22 0.25,19.22 C0.25,19.22 7.49,11.09 7.49,11.09 C7.49,11.09 6.47,0.25 6.47,0.25z "/></g></g><g id="time_group"/></svg>